<?xml version="1.0" encoding="UTF-8" standalone="no"?>
<!DOCTYPE svg PUBLIC "-//W3C//DTD SVG 1.1//EN" "http://www.w3.org/Graphics/SVG/1.1/DTD/svg11.dtd">
<svg width="100%" height="100%" viewBox="0 0 173 251" version="1.1" xmlns="http://www.w3.org/2000/svg" xmlns:xlink="http://www.w3.org/1999/xlink" xml:space="preserve" xmlns:serif="http://www.serif.com/" style="fill-rule:evenodd;clip-rule:evenodd;stroke-linecap:round;stroke-linejoin:round;stroke-miterlimit:1.5;">
    <g transform="matrix(1,0,0,1,-2775.46,-1590.92)">
        <g transform="matrix(1,0,0,1.00167,374.542,-304.587)">
            <g transform="matrix(4.93925,0,0,4.93103,-1665.03,-2555.69)">
                <text x="822.124px" y="952.736px" style="font-family:'Raleway-Regular', 'Raleway', sans-serif;font-size:12px;fill:rgb(54,71,80);">B<tspan x="829.948px 832.396px 836.248px 839.344px 841.792px 852.652px " y="952.736px 952.736px 952.736px 952.736px 952.736px 952.736px ">itlims</tspan></text>
            </g>
        </g>
        <g transform="matrix(1,0,0,1.00167,374.542,-304.587)">
            <g transform="matrix(20.9976,12.1028,-12.123,20.9626,-7239.53,-25340)">
                <path d="M912.769,777.3C912.769,777.281 912.78,777.263 912.797,777.255C913.488,776.916 914.243,776.24 914.243,776.24C914.923,777.418 914.519,778.924 913.341,779.604C912.164,780.284 910.658,779.88 909.977,778.702C909.977,778.702 910.745,777.992 911.474,777.639C911.489,777.632 911.506,777.633 911.52,777.642C911.534,777.651 911.542,777.666 911.542,777.682C911.543,777.785 911.543,777.958 911.543,777.958C911.543,778.297 911.817,778.572 912.156,778.572C912.495,778.572 912.769,778.297 912.769,777.958L912.769,777.3Z" style="fill:url(#_Linear1);"/>
            </g>
        </g>
        <g transform="matrix(1,0,0,1.00167,374.542,-304.587)">
            <g transform="matrix(6.54361,3.77167,-3.77796,6.53272,-495.313,-7628.51)">
                <path d="M976.546,895.536L975.495,896.587C975.318,896.765 975.03,896.765 974.853,896.587C974.675,896.41 974.675,896.123 974.853,895.945L976.679,894.119C976.809,893.989 977.004,893.95 977.174,894.021C977.343,894.091 977.454,894.256 977.454,894.44L977.454,900.582C977.454,900.767 977.342,900.934 977.171,901.003C975.77,901.571 974.579,902.547 973.743,903.783C972.929,904.987 972.454,906.438 972.454,908C972.454,910.082 973.299,911.969 974.665,913.335C976.031,914.701 977.918,915.546 980,915.546C982.082,915.546 983.969,914.701 985.335,913.335C986.701,911.969 987.546,910.082 987.546,908C987.546,906.603 987.165,905.293 986.502,904.171C985.818,903.013 984.834,902.053 983.657,901.399C983.438,901.277 983.359,901.001 983.48,900.781C983.602,900.562 983.879,900.483 984.098,900.605C985.416,901.338 986.518,902.412 987.284,903.709C988.027,904.967 988.454,906.434 988.454,908C988.454,910.333 987.507,912.447 985.977,913.977C984.447,915.507 982.333,916.454 980,916.454C977.667,916.454 975.553,915.507 974.023,913.977C972.493,912.447 971.546,910.333 971.546,908C971.546,906.25 972.079,904.624 972.991,903.274C973.87,901.974 975.1,900.931 976.546,900.283L976.546,895.536Z" style="fill:rgb(53,71,81);"/>
            </g>
        </g>
        <g transform="matrix(1,0,0,1.00167,374.542,-304.587)">
            <g transform="matrix(10.8537,6.25593,-6.77605,11.7169,-2536.29,-13857)">
                <path d="M980.774,820.788L980.774,830.397" style="fill:none;stroke:rgb(53,71,81);stroke-width:0.53px;"/>
            </g>
        </g>
    </g>
    <defs>
        <linearGradient id="_Linear1" x1="0" y1="0" x2="1" y2="0" gradientUnits="userSpaceOnUse" gradientTransform="matrix(3.61621,-4.30067,4.30067,3.61621,910.808,780.225)"><stop offset="0" style="stop-color:rgb(71,160,207);stop-opacity:1"/><stop offset="1" style="stop-color:rgb(119,198,180);stop-opacity:1"/></linearGradient>
    </defs>
</svg>
